<?xml version="1.0" encoding="UTF-8"?>
<svg xmlns="http://www.w3.org/2000/svg" xmlns:xlink="http://www.w3.org/1999/xlink" width="150px" height="24px" viewBox="0 0 147 24" version="1.1">
<g id="surface1">
<path style=" stroke:none;fill-rule:nonzero;fill:rgb(100%,32.156863%,75.686275%);fill-opacity:1;" d="M 17.128906 0.539062 C 12.398438 0.539062 7.460938 1.609375 2.480469 3 C 1.847656 3.125 1.230469 3.542969 0.902344 4.054688 C 0.601562 4.542969 0.492188 5.027344 0.398438 5.539062 C -0.0859375 8.261719 -0.0273438 10.9375 0.0742188 13.902344 C 0.0976562 14.582031 0.195312 15.386719 0.511719 15.875 C 0.84375 16.371094 1.40625 16.683594 2.082031 16.785156 C 2.941406 16.914062 3.808594 17.023438 4.671875 17.109375 L 4.480469 22.460938 C 4.453125 22.886719 4.660156 23.242188 4.917969 23.445312 C 5.148438 23.621094 5.402344 23.699219 5.667969 23.71875 C 6.195312 23.761719 6.8125 23.535156 7.117188 22.945312 C 8.464844 20.347656 9.308594 19.199219 10.988281 17.472656 C 15.371094 17.582031 19.199219 17.335938 23.535156 17.015625 C 25.066406 16.972656 26.117188 15.714844 26.394531 14.710938 C 27.226562 12.105469 27.355469 8.890625 27.445312 5.640625 C 27.480469 4.355469 27.035156 3.089844 26.25 2.421875 C 25.5 1.8125 24.59375 1.589844 23.765625 1.363281 C 21.457031 0.839844 19.148438 0.558594 17.128906 0.539062 Z M 23.433594 2.578125 C 24.265625 2.804688 24.996094 3.023438 25.460938 3.402344 C 26.230469 4.226562 26.207031 4.773438 26.195312 5.664062 C 26.109375 8.8125 25.957031 11.875 25.25 14.191406 C 24.945312 15.054688 24.414062 15.671875 23.40625 15.765625 C 18.992188 16.09375 15.164062 16.347656 10.726562 16.21875 C 10.550781 16.214844 10.382812 16.28125 10.257812 16.40625 C 8.394531 18.296875 7.4375 19.609375 6.019531 22.359375 C 5.984375 22.421875 5.914062 22.460938 5.824219 22.46875 C 5.765625 22.464844 5.742188 22.417969 5.738281 22.375 L 5.929688 16.570312 C 5.941406 16.257812 5.683594 15.960938 5.375 15.925781 C 4.339844 15.824219 3.304688 15.699219 2.277344 15.542969 C 1.832031 15.476562 1.667969 15.351562 1.546875 15.171875 C 1.332031 14.664062 1.339844 14.347656 1.320312 13.863281 C 1.222656 10.921875 1.171875 8.355469 1.621094 5.800781 C 1.664062 5.421875 1.804688 5.035156 1.953125 4.710938 C 2.203125 4.324219 2.582031 4.265625 2.960938 4.160156 C 7.835938 2.808594 12.601562 1.796875 17.089844 1.792969 C 19.289062 1.875 21.601562 2.097656 23.433594 2.578125 Z M 6.601562 7.554688 C 5.929688 8.363281 5.996094 9.460938 6.515625 10.195312 C 6.785156 10.582031 7.210938 10.890625 7.722656 10.960938 C 8.390625 11.015625 8.816406 10.742188 9.273438 10.429688 C 10.101562 9.707031 10.1875 8.445312 9.554688 7.53125 C 9.234375 7.066406 8.722656 6.789062 8.195312 6.769531 C 7.480469 6.777344 6.992188 7.097656 6.601562 7.554688 Z M 13.863281 6.898438 C 13.195312 6.917969 12.652344 7.382812 12.324219 7.886719 C 11.945312 8.460938 11.726562 9.179688 12.03125 9.882812 C 12.617188 11.238281 14.648438 11.222656 15.460938 9.84375 C 15.835938 9.210938 15.738281 8.488281 15.460938 7.964844 C 15.183594 7.441406 14.765625 7.015625 14.15625 6.917969 C 14.058594 6.898438 13.960938 6.894531 13.863281 6.898438 Z M 19.757812 7.023438 C 19.550781 7.019531 19.335938 7.039062 19.136719 7.09375 C 18.332031 7.308594 17.648438 8.140625 17.75 9.207031 C 17.804688 9.742188 18.050781 10.265625 18.492188 10.628906 C 18.933594 10.988281 19.578125 11.148438 20.257812 11.007812 C 21.035156 10.847656 21.519531 10.21875 21.679688 9.609375 C 21.839844 9 21.800781 8.378906 21.425781 7.875 C 21.03125 7.347656 20.414062 7.035156 19.757812 7.023438 Z M 8.140625 8.023438 C 8.292969 8.023438 8.410156 8.070312 8.53125 8.246094 C 8.804688 8.644531 8.730469 9.242188 8.453125 9.480469 C 8.179688 9.722656 8.007812 9.742188 7.890625 9.726562 C 7.769531 9.710938 7.648438 9.628906 7.539062 9.472656 C 7.332031 9.175781 7.269531 8.699219 7.542969 8.359375 C 7.6875 8.164062 7.957031 8.042969 8.144531 8.023438 Z M 13.949219 8.160156 C 13.972656 8.164062 14.234375 8.316406 14.359375 8.550781 C 14.484375 8.785156 14.507812 9.007812 14.390625 9.207031 C 14.035156 9.808594 13.285156 9.644531 13.171875 9.382812 C 13.128906 9.285156 13.160156 8.882812 13.367188 8.570312 C 13.570312 8.257812 13.832031 8.140625 13.949219 8.160156 Z M 20.421875 8.621094 C 20.460938 8.671875 20.550781 9.015625 20.480469 9.285156 C 20.40625 9.558594 20.289062 9.726562 20.003906 9.785156 C 19.632812 9.863281 19.425781 9.785156 19.273438 9.65625 C 19.117188 9.53125 19.011719 9.316406 18.988281 9.089844 C 18.933594 8.523438 19.136719 8.394531 19.457031 8.304688 C 19.832031 8.214844 20.253906 8.375 20.421875 8.621094 Z M 20.421875 8.621094 "/>
<path style=" stroke:none;fill-rule:nonzero;fill:rgb(0%,14.509804%,18.039216%);fill-opacity:1;" d="M 35.285156 3.074219 C 35.296875 2.914062 35.355469 2.769531 35.460938 2.644531 C 35.566406 2.515625 35.726562 2.445312 35.890625 2.453125 L 40.070312 2.453125 C 40.214844 2.453125 40.359375 2.511719 40.507812 2.628906 C 40.652344 2.730469 40.734375 2.898438 40.734375 3.074219 L 40.734375 9.777344 L 47.730469 9.777344 L 47.730469 3.074219 C 47.730469 2.90625 47.789062 2.757812 47.90625 2.636719 C 48.023438 2.511719 48.175781 2.453125 48.363281 2.453125 L 52.488281 2.453125 C 52.675781 2.453125 52.839844 2.5 52.980469 2.59375 C 53.121094 2.6875 53.191406 2.839844 53.191406 3.046875 L 53.191406 22.832031 C 53.191406 23.039062 53.128906 23.195312 53.007812 23.296875 C 52.886719 23.402344 52.726562 23.453125 52.527344 23.453125 L 48.363281 23.453125 C 48.175781 23.453125 48.023438 23.402344 47.90625 23.296875 C 47.789062 23.195312 47.730469 23.039062 47.730469 22.832031 L 47.730469 14.796875 L 40.734375 14.796875 L 40.734375 22.832031 C 40.734375 23.027344 40.671875 23.179688 40.542969 23.289062 C 40.417969 23.398438 40.246094 23.453125 40.03125 23.453125 L 35.890625 23.453125 C 35.496094 23.453125 35.296875 23.269531 35.285156 22.902344 Z M 73.796875 23.214844 C 73.675781 23.316406 73.546875 23.382812 73.410156 23.410156 C 73.28125 23.4375 73.152344 23.453125 73.023438 23.453125 L 70.898438 23.453125 C 70.730469 23.453125 70.582031 23.421875 70.460938 23.359375 C 70.339844 23.300781 70.234375 23.21875 70.152344 23.113281 C 70.066406 23.007812 69.992188 22.886719 69.941406 22.761719 C 69.882812 22.628906 69.835938 22.488281 69.800781 22.351562 L 69.363281 20.539062 C 69.222656 20.832031 69.019531 21.164062 68.75 21.535156 C 68.460938 21.933594 68.117188 22.285156 67.730469 22.582031 C 67.316406 22.910156 66.824219 23.183594 66.253906 23.402344 C 65.679688 23.625 65.023438 23.734375 64.28125 23.734375 C 63.210938 23.734375 62.242188 23.527344 61.367188 23.113281 C 60.515625 22.710938 59.753906 22.132812 59.136719 21.417969 C 58.523438 20.699219 58.046875 19.863281 57.710938 18.90625 C 57.371094 17.949219 57.203125 16.929688 57.203125 15.84375 L 57.203125 6.582031 C 57.203125 6.222656 57.28125 5.953125 57.433594 5.769531 C 57.589844 5.585938 57.835938 5.492188 58.171875 5.492188 L 61.425781 5.492188 C 61.828125 5.492188 62.105469 5.5625 62.253906 5.699219 C 62.40625 5.835938 62.480469 6.101562 62.480469 6.496094 L 62.480469 15.703125 C 62.480469 16.109375 62.574219 16.492188 62.753906 16.855469 C 62.9375 17.21875 63.179688 17.539062 63.480469 17.816406 C 63.78125 18.09375 64.121094 18.316406 64.5 18.476562 C 64.878906 18.636719 65.265625 18.714844 65.660156 18.714844 C 66 18.714844 66.347656 18.636719 66.710938 18.476562 C 67.074219 18.3125 67.410156 18.097656 67.710938 17.832031 C 68.015625 17.5625 68.265625 17.246094 68.460938 16.882812 C 68.660156 16.519531 68.757812 16.136719 68.757812 15.730469 L 68.757812 6.539062 C 68.757812 6.378906 68.789062 6.21875 68.851562 6.058594 C 68.910156 5.898438 69.003906 5.773438 69.125 5.691406 C 69.246094 5.617188 69.363281 5.5625 69.46875 5.535156 C 69.578125 5.507812 69.703125 5.492188 69.84375 5.492188 L 73.023438 5.492188 C 73.425781 5.492188 73.71875 5.59375 73.894531 5.789062 C 74.074219 5.988281 74.164062 6.25 74.164062 6.582031 L 74.164062 22.40625 C 74.164062 22.585938 74.125 22.75 74.042969 22.902344 C 73.964844 23.050781 73.855469 23.171875 73.714844 23.253906 Z M 90.140625 21.261719 C 89.886719 21.515625 89.605469 21.789062 89.300781 22.082031 C 88.996094 22.375 88.660156 22.648438 88.296875 22.902344 C 87.925781 23.15625 87.53125 23.367188 87.113281 23.53125 C 86.675781 23.699219 86.214844 23.78125 85.746094 23.777344 C 84.472656 23.777344 83.296875 23.539062 82.222656 23.058594 C 81.171875 22.59375 80.230469 21.925781 79.449219 21.085938 C 78.675781 20.25 78.070312 19.265625 77.632812 18.136719 C 77.195312 17.003906 76.976562 15.789062 76.976562 14.488281 C 76.976562 13.175781 77.195312 11.957031 77.632812 10.832031 C 78.070312 9.707031 78.675781 8.722656 79.449219 7.890625 C 80.230469 7.050781 81.171875 6.382812 82.222656 5.925781 C 83.296875 5.449219 84.472656 5.210938 85.746094 5.210938 C 86.265625 5.210938 86.734375 5.285156 87.164062 5.4375 C 87.574219 5.578125 87.964844 5.773438 88.332031 6.015625 C 88.683594 6.25 89.007812 6.519531 89.300781 6.816406 C 89.597656 7.113281 89.875 7.402344 90.140625 7.683594 L 90.140625 1.222656 C 90.140625 0.921875 90.230469 0.664062 90.414062 0.457031 C 90.597656 0.25 90.871094 0.148438 91.238281 0.148438 L 94.402344 0.148438 C 94.527344 0.148438 94.65625 0.171875 94.792969 0.226562 C 94.925781 0.277344 95.050781 0.347656 95.164062 0.445312 C 95.277344 0.539062 95.367188 0.652344 95.4375 0.785156 C 95.507812 0.914062 95.542969 1.0625 95.542969 1.222656 L 95.542969 22.363281 C 95.542969 23.089844 95.164062 23.453125 94.402344 23.453125 L 91.644531 23.453125 C 91.457031 23.453125 91.3125 23.429688 91.210938 23.382812 C 91.105469 23.335938 91.015625 23.265625 90.949219 23.175781 C 90.871094 23.074219 90.804688 22.960938 90.757812 22.839844 C 90.691406 22.679688 90.621094 22.519531 90.546875 22.363281 Z M 82.046875 14.488281 C 82.039062 15.082031 82.136719 15.671875 82.335938 16.234375 C 82.527344 16.773438 82.800781 17.246094 83.15625 17.640625 C 83.519531 18.039062 83.957031 18.359375 84.445312 18.582031 C 84.949219 18.8125 85.503906 18.925781 86.113281 18.925781 C 86.714844 18.925781 87.28125 18.820312 87.808594 18.601562 C 88.324219 18.394531 88.796875 18.089844 89.195312 17.703125 C 89.59375 17.316406 89.917969 16.859375 90.148438 16.355469 C 90.386719 15.835938 90.519531 15.277344 90.546875 14.683594 L 90.546875 14.488281 C 90.550781 13.894531 90.433594 13.308594 90.210938 12.761719 C 89.992188 12.226562 89.671875 11.734375 89.273438 11.320312 C 88.871094 10.902344 88.394531 10.570312 87.867188 10.335938 C 87.3125 10.09375 86.714844 9.96875 86.113281 9.976562 C 85.503906 9.976562 84.949219 10.097656 84.445312 10.335938 C 83.941406 10.578125 83.515625 10.90625 83.15625 11.320312 C 82.796875 11.742188 82.515625 12.234375 82.335938 12.761719 C 82.140625 13.316406 82.042969 13.898438 82.046875 14.488281 Z M 111.886719 21.261719 C 111.632812 21.515625 111.355469 21.789062 111.046875 22.082031 C 110.742188 22.375 110.40625 22.648438 110.042969 22.902344 C 109.675781 23.15625 109.277344 23.367188 108.859375 23.53125 C 108.425781 23.699219 107.960938 23.78125 107.496094 23.777344 C 106.21875 23.777344 105.042969 23.539062 103.96875 23.058594 C 102.921875 22.59375 101.976562 21.925781 101.195312 21.085938 C 100.421875 20.25 99.816406 19.265625 99.378906 18.136719 C 98.945312 17.003906 98.726562 15.789062 98.726562 14.488281 C 98.726562 13.175781 98.945312 11.957031 99.378906 10.832031 C 99.816406 9.707031 100.421875 8.722656 101.195312 7.890625 C 101.976562 7.050781 102.921875 6.382812 103.96875 5.925781 C 105.042969 5.449219 106.21875 5.210938 107.496094 5.210938 C 108.011719 5.210938 108.480469 5.285156 108.910156 5.4375 C 109.320312 5.578125 109.714844 5.773438 110.078125 6.015625 C 110.429688 6.25 110.753906 6.519531 111.046875 6.816406 C 111.34375 7.113281 111.625 7.402344 111.886719 7.683594 L 111.886719 1.222656 C 111.886719 0.921875 111.976562 0.664062 112.160156 0.457031 C 112.34375 0.25 112.617188 0.148438 112.984375 0.148438 L 116.152344 0.148438 C 116.273438 0.148438 116.402344 0.171875 116.539062 0.226562 C 116.675781 0.277344 116.800781 0.347656 116.910156 0.445312 C 117.023438 0.539062 117.117188 0.652344 117.1875 0.785156 C 117.253906 0.914062 117.292969 1.0625 117.292969 1.222656 L 117.292969 22.363281 C 117.292969 23.089844 116.910156 23.453125 116.152344 23.453125 L 113.390625 23.453125 C 113.203125 23.453125 113.058594 23.429688 112.957031 23.382812 C 112.855469 23.335938 112.765625 23.265625 112.695312 23.175781 C 112.617188 23.074219 112.554688 22.960938 112.503906 22.839844 C 112.4375 22.679688 112.367188 22.519531 112.292969 22.363281 Z M 103.792969 14.488281 C 103.789062 15.082031 103.886719 15.671875 104.082031 16.234375 C 104.273438 16.773438 104.546875 17.246094 104.90625 17.640625 C 105.265625 18.039062 105.703125 18.359375 106.191406 18.582031 C 106.695312 18.8125 107.25 18.925781 107.859375 18.925781 C 108.460938 18.925781 109.027344 18.820312 109.558594 18.601562 C 110.070312 18.394531 110.542969 18.089844 110.941406 17.703125 C 111.339844 17.316406 111.664062 16.859375 111.894531 16.355469 C 112.132812 15.835938 112.265625 15.277344 112.292969 14.683594 L 112.292969 14.488281 C 112.296875 13.894531 112.183594 13.308594 111.957031 12.761719 C 111.738281 12.226562 111.421875 11.734375 111.019531 11.320312 C 110.621094 10.902344 110.140625 10.570312 109.613281 10.335938 C 109.0625 10.09375 108.464844 9.96875 107.859375 9.976562 C 107.25 9.976562 106.695312 10.097656 106.191406 10.335938 C 105.691406 10.578125 105.261719 10.90625 104.90625 11.320312 C 104.542969 11.742188 104.261719 12.234375 104.082031 12.761719 C 103.886719 13.316406 103.789062 13.898438 103.792969 14.488281 Z M 121.035156 1.234375 C 121.035156 0.933594 121.109375 0.679688 121.261719 0.472656 C 121.410156 0.265625 121.667969 0.160156 122.035156 0.160156 L 125.484375 0.160156 C 125.578125 0.160156 125.675781 0.1875 125.78125 0.238281 C 125.886719 0.292969 125.984375 0.367188 126.066406 0.457031 C 126.15625 0.550781 126.230469 0.664062 126.292969 0.796875 C 126.355469 0.929688 126.386719 1.074219 126.386719 1.234375 L 126.386719 22.363281 C 126.386719 22.722656 126.285156 22.992188 126.082031 23.175781 C 125.878906 23.359375 125.621094 23.453125 125.300781 23.453125 L 122.035156 23.453125 C 121.667969 23.453125 121.410156 23.359375 121.261719 23.175781 C 121.109375 22.992188 121.035156 22.722656 121.035156 22.363281 Z M 144.738281 21.304688 C 143.921875 22.0625 142.980469 22.667969 141.953125 23.09375 C 140.914062 23.523438 139.796875 23.742188 138.671875 23.734375 C 137.386719 23.734375 136.171875 23.5 135.027344 23.027344 C 133.910156 22.574219 132.886719 21.910156 132.015625 21.070312 C 131.148438 20.230469 130.449219 19.226562 129.960938 18.121094 C 129.453125 16.988281 129.199219 15.761719 129.199219 14.429688 C 129.199219 13.601562 129.300781 12.796875 129.503906 12.019531 C 129.699219 11.257812 129.988281 10.523438 130.363281 9.835938 C 130.730469 9.15625 131.1875 8.527344 131.710938 7.960938 C 132.238281 7.394531 132.835938 6.902344 133.492188 6.496094 C 134.160156 6.085938 134.878906 5.765625 135.632812 5.550781 C 136.425781 5.320312 137.242188 5.207031 138.066406 5.210938 C 138.847656 5.210938 139.601562 5.3125 140.332031 5.519531 C 141.066406 5.730469 141.753906 6.019531 142.394531 6.398438 C 143.039062 6.773438 143.628906 7.226562 144.164062 7.753906 C 144.691406 8.273438 145.152344 8.855469 145.542969 9.488281 C 145.925781 10.113281 146.226562 10.789062 146.4375 11.496094 C 146.648438 12.207031 146.753906 12.941406 146.753906 13.695312 C 146.753906 14.183594 146.746094 14.585938 146.730469 14.898438 C 146.71875 15.207031 146.644531 15.457031 146.511719 15.640625 C 146.382812 15.824219 146.164062 15.949219 145.859375 16.019531 C 145.554688 16.09375 145.105469 16.128906 144.515625 16.128906 L 134.378906 16.128906 C 134.472656 16.730469 134.664062 17.234375 134.949219 17.640625 C 135.214844 18.027344 135.550781 18.355469 135.941406 18.609375 C 136.316406 18.851562 136.714844 19.023438 137.140625 19.125 C 137.53125 19.226562 137.929688 19.277344 138.335938 19.28125 C 138.671875 19.28125 139.019531 19.246094 139.375 19.175781 C 139.726562 19.105469 140.074219 19.011719 140.410156 18.890625 C 140.726562 18.78125 141.035156 18.644531 141.324219 18.480469 C 141.601562 18.328125 141.824219 18.164062 141.996094 17.996094 C 142.144531 17.871094 142.273438 17.78125 142.382812 17.71875 C 142.488281 17.65625 142.605469 17.625 142.726562 17.625 C 142.847656 17.625 142.972656 17.667969 143.101562 17.753906 C 143.253906 17.863281 143.398438 17.984375 143.527344 18.121094 L 145.019531 19.820312 C 145.125 19.941406 145.191406 20.050781 145.21875 20.152344 C 145.246094 20.25 145.261719 20.351562 145.261719 20.453125 C 145.261719 20.644531 145.207031 20.804688 145.105469 20.941406 C 145 21.082031 144.878906 21.203125 144.738281 21.304688 Z M 137.96875 9.523438 C 137.601562 9.523438 137.25 9.597656 136.90625 9.742188 C 136.558594 9.890625 136.234375 10.089844 135.941406 10.328125 C 135.640625 10.574219 135.371094 10.851562 135.132812 11.164062 C 134.902344 11.457031 134.707031 11.773438 134.546875 12.113281 L 141.742188 12.113281 C 141.550781 11.757812 141.339844 11.417969 141.101562 11.09375 C 140.875 10.785156 140.609375 10.511719 140.3125 10.273438 C 140.007812 10.03125 139.664062 9.847656 139.300781 9.722656 C 138.917969 9.589844 138.476562 9.523438 137.96875 9.523438 Z M 137.96875 9.523438 "/>
</g>
</svg>
